<?xml version="1.0" encoding="UTF-8" standalone="no"?>
<!-- Created with Inkscape (http://www.inkscape.org/) -->

<svg
   width="50"
   height="50"
   viewBox="0 0 13.229166 13.229166"
   version="1.1"
   id="svg5"
   xml:space="preserve"
   inkscape:version="1.2 (dc2aedaf03, 2022-05-15)"
   sodipodi:docname="logo.svg"
   xmlns:inkscape="http://www.inkscape.org/namespaces/inkscape"
   xmlns:sodipodi="http://sodipodi.sourceforge.net/DTD/sodipodi-0.dtd"
   xmlns="http://www.w3.org/2000/svg"
   xmlns:svg="http://www.w3.org/2000/svg"
   xmlns:rdf="http://www.w3.org/1999/02/22-rdf-syntax-ns#"
   xmlns:cc="http://creativecommons.org/ns#"
   xmlns:dc="http://purl.org/dc/elements/1.1/"><sodipodi:namedview
     id="namedview7"
     pagecolor="#ffffff"
     bordercolor="#000000"
     borderopacity="0.25"
     inkscape:showpageshadow="2"
     inkscape:pageopacity="0.0"
     inkscape:pagecheckerboard="0"
     inkscape:deskcolor="#d1d1d1"
     inkscape:document-units="px"
     showgrid="false"
     showguides="true"
     inkscape:zoom="2.025849"
     inkscape:cx="175.23517"
     inkscape:cy="128.09444"
     inkscape:window-width="1600"
     inkscape:window-height="1191"
     inkscape:window-x="429"
     inkscape:window-y="-9"
     inkscape:window-maximized="1"
     inkscape:current-layer="layer1"><sodipodi:guide
       position="13.229166,-4.9999998e-07"
       orientation="-1,0"
       id="guide863"
       inkscape:locked="false"
       inkscape:label=""
       inkscape:color="rgb(0,134,229)" /><sodipodi:guide
       position="0,-61.77083"
       orientation="0,1"
       id="guide872"
       inkscape:locked="false"
       inkscape:label=""
       inkscape:color="rgb(0,134,229)" /><sodipodi:guide
       position="13.229166,-4.9999998e-07"
       orientation="0,1"
       id="guide390"
       inkscape:locked="false"
       inkscape:label=""
       inkscape:color="rgb(0,134,229)" /></sodipodi:namedview><defs
     id="defs2" /><g
     inkscape:label="Camada 1"
     inkscape:groupmode="layer"
     id="layer1"><path
       style="fill:#caa640;fill-opacity:1;stroke-width:0.0233456"
       d="m 3.8603141,12.2934 c 5.4e-4,-0.297793 0.032004,-0.410783 0.1426365,-0.512489 0.1207787,-0.111032 0.195323,-0.123678 0.729064,-0.123678 0.5459282,0 0.5285242,0.0046 0.5285242,-0.138127 0,-0.09362 0.086482,-0.344144 0.1699095,-0.492205 0.105428,-0.187104 0.3472405,-0.417272 0.5479675,-0.521578 l 0.1692555,-0.08795 V 7.7105521 c 0,-1.488749 -0.00842,-2.706816 -0.01874,-2.706816 -0.0103,0 -0.06432,-0.044644 -0.120032,-0.099219 C 5.8928833,4.7908781 5.7843938,4.5760517 5.7613128,4.4142596 L 5.7454978,4.3033679 h 0.8690885 0.869089 l -0.01582,0.1108917 c -0.02308,0.1617921 -0.1315705,0.3766185 -0.247587,0.490257 -0.055711,0.054569 -0.1097265,0.099219 -0.120032,0.099219 -0.01031,0 -0.01874,1.218067 -0.01874,2.706816 V 10.41737 l 0.169255,0.08795 c 0.200727,0.104305 0.4425405,0.334474 0.547968,0.521578 0.083428,0.148061 0.16991,0.398586 0.16991,0.492205 0,0.142713 -0.017835,0.13808 0.5336105,0.13864 0.441248,4.48e-4 0.517101,0.006 0.598651,0.04361 0.209484,0.09668 0.2684743,0.227888 0.2684743,0.59713 v 0.269223 H 6.6145888 3.8598061 l 4.95e-4,-0.274311 z M 2.4940836,9.5684257 C 2.1538368,9.5055937 1.7700914,9.3386947 1.498923,9.1356185 1.1878794,8.90268 0.88929812,8.5370941 0.73128492,8.1957131 0.62540062,7.9669541 0.61336122,7.9819086 0.91411022,7.9686271 L 1.1784401,7.9569521 1.956988,5.8935376 C 2.3851897,4.7586622 2.7499935,3.8156682 2.7676641,3.7979981 c 0.07801,-0.07801 0.2785869,-0.076678 0.3441218,0.0023 0.015539,0.018729 0.3780792,0.961641 0.8056337,2.09536 l 0.7773719,2.061309 0.2595281,0.00662 c 0.3001687,0.00764 0.2939207,2.82e-4 0.1917357,0.2256465 -0.3198831,0.7054809 -1.0105292,1.2421271 -1.7765112,1.3803811 -0.2181686,0.03937 -0.659115,0.03879 -0.8754605,-0.0012 z M 4.150665,7.8110446 C 4.1182605,7.7243746 3.8325095,6.9661676 3.5156654,6.1261436 2.9396379,4.5989617 2.9395844,4.5988325 2.906877,4.6787151 2.888886,4.7226576 2.6083101,5.4624761 2.2833729,6.3227616 1.9584365,7.1830471 1.6853203,7.9053021 1.6764489,7.9277721 c -0.015241,0.0386 0.053986,0.040855 1.2585032,0.040855 H 4.2095853 Z M 9.8479501,9.5699177 C 9.0818838,9.4214447 8.3999238,8.887916 8.0831118,8.1892016 7.9809263,7.9638351 7.9746753,7.9711911 8.2748703,7.9635556 l 0.2595495,-0.00662 0.7782915,-2.064215 C 9.7407711,4.7574039 10.105099,3.8144095 10.12233,3.7971804 c 0.07798,-0.077978 0.278228,-0.075348 0.344519,0.0045 0.0162,0.019521 0.379203,0.9624348 0.806667,2.0953607 l 0.77721,2.059867 0.26433,0.011675 c 0.300749,0.01328 0.288709,-0.00165 0.182825,0.227086 -0.120772,0.260923 -0.280662,0.4804459 -0.523255,0.7184114 -0.322845,0.316683 -0.646401,0.5018552 -1.086354,0.6217232 -0.228638,0.0623 -0.798422,0.08095 -1.0403219,0.03407 z M 11.552717,7.9277721 c -0.0089,-0.022475 -0.281988,-0.744725 -0.606924,-1.6050105 -0.324937,-0.8602855 -0.605514,-1.6001062 -0.623504,-1.6440465 -0.0327,-0.079883 -0.03276,-0.079753 -0.6087889,1.4474275 -0.316844,0.840025 -0.6025928,1.598232 -0.6349983,1.684902 l -0.058917,0.1575825 h 1.2746332 c 1.204516,0 1.273745,-0.0023 1.258502,-0.040855 z M 6.3064743,3.6883884 C 6.1073858,3.6048126 5.9687713,3.4761522 5.8716783,3.2848162 5.8165023,3.1760868 5.7726538,2.9442841 5.7900483,2.8532946 5.7999798,2.8013326 5.7818133,2.778073 5.6592993,2.6859828 5.4330168,2.515883 5.2968173,2.4725563 4.9920633,2.4737275 4.6629436,2.4749875 4.5013572,2.5257603 3.8796628,2.8232197 3.6273653,2.9439367 3.4100837,3.0427045 3.396815,3.0427045 c -0.01327,0 -0.031009,0.021704 -0.039429,0.048229 C 3.334967,3.1615621 3.2100758,3.2962678 3.1273343,3.3390547 2.9676266,3.4216428 2.6920205,3.3602542 2.5793311,3.2169922 2.4561368,3.0603756 2.4506153,2.7982866 2.5674142,2.6514394 2.7356727,2.4398975 3.0485451,2.400387 3.2330695,2.5673787 c 0.03704,0.033514 0.07452,0.020117 0.459045,-0.1639923 0.2302956,-0.1102669 0.5329535,-0.2390209 0.6725705,-0.286119 0.2272027,-0.076647 0.2857086,-0.086779 0.557343,-0.096547 0.2342383,-0.00842 0.3381203,-0.00213 0.4552398,0.027741 0.182265,0.046425 0.3984035,0.1460864 0.5233215,0.2413019 l 0.091427,0.069692 0.10701,-0.081992 c 0.058854,-0.045094 0.1427825,-0.097043 0.186505,-0.1154378 l 0.079495,-0.033444 -0.060271,-0.03954 c -0.133041,-0.087273 -0.227517,-0.2661432 -0.226489,-0.4288076 3.595e-4,-0.056995 0.02975,-0.1682228 0.068369,-0.2587549 0.064407,-0.1509911 0.436881,-0.7400187 0.467951,-0.7400187 0.031075,0 0.4035415,0.5890276 0.467951,0.7400195 0.03862,0.090531 0.068007,0.2017567 0.068369,0.2587541 0.00105,0.1626644 -0.093448,0.3415348 -0.2264865,0.4288075 l -0.060272,0.039541 0.079495,0.033444 c 0.04372,0.018392 0.1276495,0.070346 0.186505,0.1154377 l 0.1070095,0.081992 0.091429,-0.069692 c 0.124918,-0.095215 0.3410565,-0.1948756 0.5233215,-0.2413018 0.1171185,-0.029829 0.2210005,-0.036161 0.4552385,-0.027742 0.271635,0.00977 0.3301405,0.019904 0.5573435,0.096547 0.1396175,0.047094 0.442274,0.1758513 0.6725693,0.2861189 0.384521,0.1841123 0.422015,0.1975057 0.459045,0.1639923 0.1845239,-0.1669925 0.4973969,-0.1274819 0.6656549,0.084061 0.116801,0.1468472 0.11128,0.4089357 -0.01192,0.5655528 -0.112689,0.1432611 -0.388295,0.2046502 -0.548003,0.1220625 -0.08274,-0.042786 -0.2076339,-0.1774903 -0.2300519,-0.2481223 -0.0084,-0.026518 -0.02616,-0.048228 -0.03943,-0.048228 -0.01327,0 -0.23055,-0.098768 -0.482848,-0.2194848 C 8.7278168,2.5257602 8.5662303,2.4749932 8.2371108,2.4737282 7.9323568,2.4725432 7.7961573,2.5158832 7.5698743,2.6859837 7.4473658,2.7780753 7.4291933,2.8013304 7.4391258,2.8532955 c 0.01815,0.094931 -0.027315,0.3241845 -0.088056,0.4440532 -0.075883,0.1497421 -0.232485,0.3010064 -0.3862955,0.3731189 -0.187348,0.087838 -0.473203,0.09562 -0.658293,0.017919 z"
       id="path2101" /></g><metadata
     id="metadata1051"><rdf:RDF><cc:Work
         rdf:about=""><dc:rights><cc:Agent><dc:title>Garcez Filho | Advocacia &amp; Consultoria Jurídica</dc:title></cc:Agent></dc:rights><dc:publisher><cc:Agent><dc:title>Garcez Filho | Advocacia &amp; Consultoria Jurídica</dc:title></cc:Agent></dc:publisher></cc:Work></rdf:RDF></metadata></svg>
