<?xml version="1.0" encoding="UTF-8" standalone="no"?>
<!-- Created with Inkscape (http://www.inkscape.org/) -->

<svg
   width="50mm"
   height="50mm"
   viewBox="0 0 50 50"
   version="1.1"
   id="svg5"
   xml:space="preserve"
   inkscape:version="1.2 (dc2aedaf03, 2022-05-15)"
   sodipodi:docname="logo_footer.svg"
   inkscape:export-filename="desenho_1.png"
   inkscape:export-xdpi="300"
   inkscape:export-ydpi="300"
   xmlns:inkscape="http://www.inkscape.org/namespaces/inkscape"
   xmlns:sodipodi="http://sodipodi.sourceforge.net/DTD/sodipodi-0.dtd"
   xmlns:xlink="http://www.w3.org/1999/xlink"
   xmlns="http://www.w3.org/2000/svg"
   xmlns:svg="http://www.w3.org/2000/svg"><sodipodi:namedview
     id="namedview7"
     pagecolor="#ffffff"
     bordercolor="#000000"
     borderopacity="0.25"
     inkscape:showpageshadow="2"
     inkscape:pageopacity="0.0"
     inkscape:pagecheckerboard="0"
     inkscape:deskcolor="#d1d1d1"
     inkscape:document-units="mm"
     showgrid="false"
     showguides="true"
     inkscape:zoom="2.8649832"
     inkscape:cx="18.673757"
     inkscape:cy="132.46151"
     inkscape:window-width="1920"
     inkscape:window-height="991"
     inkscape:window-x="467"
     inkscape:window-y="1271"
     inkscape:window-maximized="1"
     inkscape:current-layer="layer1"><sodipodi:guide
       position="25,25"
       orientation="-1,0"
       id="guide863"
       inkscape:locked="false"
       inkscape:label=""
       inkscape:color="rgb(0,134,229)" /><sodipodi:guide
       position="25,25"
       orientation="0,1"
       id="guide872"
       inkscape:locked="false"
       inkscape:label=""
       inkscape:color="rgb(0,134,229)" /></sodipodi:namedview><defs
     id="defs2"><linearGradient
       inkscape:collect="always"
       id="linearGradient9168"><stop
         style="stop-color:#e4c84d;stop-opacity:1;"
         offset="0"
         id="stop9164" /><stop
         style="stop-color:#775015;stop-opacity:1;"
         offset="1"
         id="stop9166" /></linearGradient><linearGradient
       inkscape:collect="always"
       xlink:href="#linearGradient9168"
       id="linearGradient14037"
       gradientUnits="userSpaceOnUse"
       gradientTransform="matrix(1.0497196,0,0,0.31249995,-119.96258,47.536659)"
       x1="118.30131"
       y1="-42.481342"
       x2="160.22855"
       y2="-42.481342" /></defs><g
     inkscape:label="Camada 1"
     inkscape:groupmode="layer"
     id="layer1"><rect
       style="fill:#062a4e;fill-opacity:1;stroke-width:1.33326"
       id="rect1011"
       width="50"
       height="50"
       x="-1.7763568e-15"
       y="-9.5367432e-07" /><rect
       style="fill:none;stroke-width:0.657386"
       id="rect384"
       width="90"
       height="50"
       x="-18.676327"
       y="0" /><text
       xml:space="preserve"
       style="font-size:5.31153px;fill:#ffffff;stroke-width:0.442627"
       x="26.308113"
       y="32.891571"
       id="text63"><tspan
         sodipodi:role="line"
         id="tspan61"
         style="font-style:normal;font-variant:normal;font-weight:bold;font-stretch:normal;font-family:'Book Antiqua';-inkscape-font-specification:'Book Antiqua Bold';text-align:center;text-anchor:middle;fill:#ffffff;stroke-width:0.442627"
         x="26.308113"
         y="32.891571">Garcez Filho</tspan></text><text
       xml:space="preserve"
       style="font-size:2.74354px;text-align:center;text-anchor:middle;fill:#ffffff;stroke-width:0.228628"
       x="26.327694"
       y="37.545273"
       id="text63-3"><tspan
         sodipodi:role="line"
         id="tspan61-8"
         style="font-style:normal;font-variant:normal;font-weight:normal;font-stretch:normal;font-family:sans-serif;-inkscape-font-specification:sans-serif;text-align:center;text-anchor:middle;fill:#ffffff;stroke-width:0.228628"
         x="26.327694"
         y="37.545273">Advocacia &amp; Consultoria Jurídica</tspan></text><path
       style="fill:#caa640;fill-opacity:1;stroke-width:0.0296392"
       d="m 22.826899,23.458132 c 7.05e-4,-0.378074 0.04063,-0.521524 0.181089,-0.650648 0.153338,-0.140965 0.247978,-0.15702 0.925607,-0.15702 0.693101,0 0.671005,0.0058 0.671005,-0.175364 0,-0.118857 0.109796,-0.436919 0.215715,-0.624895 0.133849,-0.237544 0.440851,-0.529762 0.695691,-0.662187 l 0.214884,-0.111664 v -3.436532 c 0,-1.890092 -0.0107,-3.436531 -0.02379,-3.436531 -0.01308,0 -0.08166,-0.05668 -0.152391,-0.125967 C 25.407417,13.93305 25.26968,13.66031 25.240377,13.454901 l -0.02008,-0.140786 h 1.103381 1.103381 l -0.02008,0.140786 c -0.0293,0.205409 -0.16704,0.478149 -0.314332,0.622423 -0.07073,0.06928 -0.139307,0.125967 -0.152391,0.125967 -0.01309,0 -0.02379,1.546439 -0.02379,3.436531 v 3.436532 l 0.214884,0.111664 c 0.25484,0.132425 0.561842,0.424643 0.695691,0.662187 0.105919,0.187976 0.215715,0.506038 0.215715,0.624895 0,0.181186 -0.02264,0.175304 0.677463,0.176015 0.560202,5.69e-4 0.656503,0.0076 0.760038,0.05537 0.265957,0.122747 0.340851,0.289324 0.340851,0.758107 v 0.341803 h -3.497426 -3.497426 l 6.52e-4,-0.348261 z m -1.734544,-3.459584 c -0.431972,-0.07977 -0.919169,-0.291663 -1.26344,-0.549485 -0.394896,-0.295735 -0.77397,-0.759877 -0.974581,-1.193289 -0.134429,-0.290428 -0.149714,-0.271443 0.232112,-0.288304 l 0.335589,-0.01482 0.988432,-2.619677 c 0.543638,-1.440823 1.006787,-2.638033 1.029221,-2.660466 0.09904,-0.09904 0.35369,-0.09735 0.436892,0.0029 0.01973,0.02378 0.480003,1.220884 1.022819,2.660236 l 0.986938,2.617004 0.329493,0.0084 c 0.381089,0.0097 0.373157,3.58e-4 0.243424,0.286477 -0.406118,0.895674 -1.282951,1.576992 -2.255429,1.752516 -0.276983,0.04999 -0.836801,0.04925 -1.11147,-0.0015 z m 2.103168,-2.231143 c -0.04114,-0.110035 -0.403924,-1.072641 -0.806184,-2.139123 -0.731315,-1.938886 -0.731384,-1.93905 -0.772908,-1.837631 -0.02284,0.05579 -0.379056,0.99505 -0.791591,2.087255 -0.412534,1.092205 -0.759278,2.009167 -0.770541,2.037695 -0.01935,0.04901 0.06854,0.05187 1.597775,0.05187 h 1.618253 z m 7.233181,2.233038 c -0.972585,-0.188499 -1.838391,-0.865859 -2.24061,-1.752936 -0.129733,-0.286121 -0.137669,-0.276783 0.243453,-0.286476 l 0.32952,-0.0084 0.988107,-2.620693 c 0.543458,-1.441381 1.006003,-2.638591 1.027878,-2.660465 0.099,-0.099 0.353234,-0.09566 0.437396,0.0057 0.02057,0.02478 0.48143,1.221892 1.024132,2.660237 l 0.986733,2.615173 0.335589,0.01482 c 0.381826,0.01686 0.366541,-0.0021 0.232112,0.288304 -0.15333,0.331264 -0.356324,0.609967 -0.664317,0.912084 -0.409878,0.402056 -0.82066,0.637148 -1.379217,0.78933 -0.290275,0.07909 -1.013663,0.102778 -1.320776,0.04325 z m 2.164345,-2.084842 c -0.01126,-0.02853 -0.358007,-0.94549 -0.770541,-2.037695 -0.412535,-1.092205 -0.768751,-2.031469 -0.791591,-2.087255 -0.04152,-0.101419 -0.04159,-0.101255 -0.772908,1.837631 -0.40226,1.066482 -0.765043,2.029088 -0.806184,2.139123 l -0.0748,0.200065 h 1.618253 c 1.529235,0 1.617127,-0.0029 1.597775,-0.05187 z m -6.660545,-5.382253 c -0.25276,-0.106107 -0.428743,-0.269452 -0.552011,-0.512369 -0.07005,-0.138041 -0.125719,-0.432334 -0.103636,-0.547853 0.01261,-0.06597 -0.01046,-0.0955 -0.165996,-0.212416 -0.287285,-0.215956 -0.460202,-0.270963 -0.847112,-0.269476 -0.417845,0.0016 -0.622993,0.06606 -1.412285,0.44371 -0.320313,0.15326 -0.59617,0.278654 -0.613016,0.278654 -0.01685,0 -0.03937,0.02755 -0.05006,0.06123 -0.02846,0.08967 -0.187023,0.26069 -0.29207,0.315012 -0.202762,0.104852 -0.552667,0.02691 -0.695736,-0.154969 -0.156406,-0.198838 -0.163416,-0.531582 -0.01513,-0.718017 0.213618,-0.268571 0.610836,-0.318732 0.845105,-0.106722 0.04702,0.04255 0.09461,0.02554 0.582796,-0.208202 0.29238,-0.139993 0.676628,-0.303457 0.853884,-0.363252 0.288453,-0.09731 0.362731,-0.110173 0.707594,-0.122574 0.297385,-0.01069 0.429272,-0.0027 0.577964,0.03522 0.231401,0.05894 0.505807,0.185469 0.664401,0.306353 l 0.116075,0.08848 0.135858,-0.104096 c 0.07472,-0.05725 0.181274,-0.123204 0.236784,-0.146558 l 0.100925,-0.04246 -0.07652,-0.0502 c -0.168904,-0.1108 -0.288849,-0.337891 -0.287544,-0.544407 4.57e-4,-0.07236 0.03777,-0.213573 0.0868,-0.328511 0.08177,-0.1916957 0.554657,-0.9395164 0.594103,-0.9395164 0.03945,0 0.51233,0.7478207 0.594103,0.9395164 0.04903,0.114938 0.08634,0.256148 0.0868,0.328511 0.0013,0.206516 -0.11864,0.433607 -0.287544,0.544407 l -0.07652,0.0502 0.100925,0.04246 c 0.05551,0.02335 0.162062,0.08931 0.236784,0.146558 l 0.135858,0.104096 0.116075,-0.08848 c 0.158594,-0.120884 0.433,-0.247411 0.664401,-0.306353 0.148692,-0.03787 0.280579,-0.04591 0.577964,-0.03522 0.344863,0.0124 0.419141,0.02527 0.707594,0.122574 0.177256,0.05979 0.561504,0.223259 0.853884,0.363252 0.488182,0.233746 0.535781,0.25075 0.582796,0.208202 0.234269,-0.21201 0.631487,-0.161849 0.845105,0.106722 0.148288,0.186435 0.141278,0.519179 -0.01513,0.718017 -0.143069,0.181883 -0.492974,0.259821 -0.695736,0.154969 -0.105047,-0.05432 -0.263609,-0.225339 -0.29207,-0.315012 -0.01069,-0.03367 -0.03321,-0.06123 -0.05006,-0.06123 -0.01685,0 -0.292703,-0.125394 -0.613016,-0.278654 -0.789292,-0.377651 -0.99444,-0.442104 -1.412285,-0.44371 -0.38691,-0.0015 -0.559827,0.05352 -0.847112,0.269476 -0.155535,0.116918 -0.178607,0.146442 -0.165996,0.212416 0.02304,0.120523 -0.03468,0.41158 -0.111794,0.563763 -0.09634,0.190111 -0.295159,0.382153 -0.490435,0.473707 -0.237854,0.111518 -0.600771,0.121397 -0.835758,0.02275 z"
       id="path2101" /><rect
       style="fill:url(#linearGradient14037);fill-opacity:1;stroke-width:0.151539"
       id="rect8461-1-2-5"
       width="44.011848"
       height="0.46175364"
       x="4.2206297"
       y="34.030357" /><rect
       style="fill:#ffffff;fill-opacity:0;stroke-width:0.264583"
       id="rect15484"
       width="26.643148"
       height="26.853271"
       x="103.56872"
       y="60.245174" /><text
       xml:space="preserve"
       style="font-weight:bold;font-size:3.175px;font-family:'Book Antiqua';-inkscape-font-specification:'Book Antiqua Bold';text-align:center;text-anchor:middle;fill:#062a4e;stroke-width:0.264583"
       x="20.24357"
       y="37.5868"
       id="text532"><tspan
         sodipodi:role="line"
         id="tspan530"
         x="20.24357"
         y="37.5868"
         style="stroke-width:0.264583" /></text></g></svg>
